<mxfile host="app.diagrams.net" agent="Mozilla/5.0 (Windows NT 10.0; Win64; x64) AppleWebKit/537.36 (KHTML, like Gecko) Chrome/131.0.0.0 Safari/537.36" version="24.9.0">
  <diagram name="Page-1" id="TYut79DchsV0ZlXDdQqY">
    <mxGraphModel dx="1247" dy="649" grid="1" gridSize="10" guides="1" tooltips="1" connect="1" arrows="1" fold="1" page="1" pageScale="1" pageWidth="827" pageHeight="1169" math="0" shadow="0">
      <root>
        <mxCell id="0" />
        <mxCell id="1" parent="0" />
        <mxCell id="6p8rVo9SK4B3AD2PchLz-17" value="" style="rounded=0;whiteSpace=wrap;html=1;rotation=260;strokeWidth=4;fillColor=none;strokeColor=#66B2FF;" vertex="1" parent="1">
          <mxGeometry x="550" y="850" width="149.45" height="60" as="geometry" />
        </mxCell>
        <mxCell id="6p8rVo9SK4B3AD2PchLz-19" value="" style="endArrow=none;html=1;rounded=0;entryX=0.5;entryY=0;entryDx=0;entryDy=0;strokeWidth=4;strokeColor=#66B2FF;" edge="1" parent="1" target="6p8rVo9SK4B3AD2PchLz-17">
          <mxGeometry width="50" height="50" relative="1" as="geometry">
            <mxPoint x="290" y="940" as="sourcePoint" />
            <mxPoint x="440" y="720" as="targetPoint" />
          </mxGeometry>
        </mxCell>
        <mxCell id="6p8rVo9SK4B3AD2PchLz-16" value="" style="rounded=0;whiteSpace=wrap;html=1;rotation=350;strokeWidth=4;fillColor=none;strokeColor=#FFFF66;" vertex="1" parent="1">
          <mxGeometry x="310.87" y="889.94" width="149.45" height="60" as="geometry" />
        </mxCell>
        <mxCell id="6p8rVo9SK4B3AD2PchLz-23" value="" style="endArrow=none;html=1;rounded=0;exitX=0.5;exitY=0;exitDx=0;exitDy=0;" edge="1" parent="1" source="6p8rVo9SK4B3AD2PchLz-16">
          <mxGeometry width="50" height="50" relative="1" as="geometry">
            <mxPoint x="340" y="870" as="sourcePoint" />
            <mxPoint x="380" y="850" as="targetPoint" />
          </mxGeometry>
        </mxCell>
        <mxCell id="6p8rVo9SK4B3AD2PchLz-24" value="" style="shape=image;verticalLabelPosition=bottom;labelBackgroundColor=default;verticalAlign=top;aspect=fixed;imageAspect=0;image=data:image/png,iVBORw0KGgoAAAANSUhEUgAAAgwAAALuCAIAAABNaNnRAAAAAXNSR0IArs4c6QAAAARnQU1BAACxjwv8YQUAAAAJcEhZcwAAEnQAABJ0Ad5mH3gAACxESURBVHhe7d27eePIugXQTopxMAmmMCEwAkWgACYA+fRly6ZNV+65+0zh8GpaTYgPsFAFrGX0p4bUGon8UbteqPn1HwC4QEgAcJGQAOAiIQHARUICgIuEBAAXCQkALhISAFwkJAC4SEgAcJGQAOAiIQHARUIC/vP2j8/Pz+HvwP8ICVbt/f19u91u/udwOAyfAP4hJFip4/H4119//fr1a7/fn06nDCNeX1/z191u9/HxMXwRrJ6QYHVG8iBp8TU5hquwYkKCdXl7e/txZinJsd1uExV///23hQpWTkiwFrc2/fmyZEn+iYUK1kxIsHyn02m/3yce/vrrr5smkZIlLy8v5R9aqGCdhARLllY+A4K08hkQ3N3Kn5e4ExgWKlgbIcFiHQ6Hsvzw9vY2XHrAebNsUme4BCsgJFigDBp2u136/q+vrxOuPJdxSXIiaZHMGK7CogkJFuV0Op1XEY7H43B1UhX+E9AOIcFCVO7mZ7ByXqiYcLACrRESLMHhcJhlwWDaZQ9okJCgb1+3Hs3Soy8jmPwAj2yggmYJCXqV1vm8NjB763z3oxjQOCFBl87LD009Dp2syo+UqMiPZ6GCZRASdObr8wptNsTXHA8FvRASdOPUzxGtSS8Hj7MMQoIOdNrmdpRqcImQoHW9z960Pz8GI4QE7cqg4Rmna8yizZV2+JGQoEWnJe4oTc61s2cXriQkaEta0nS605Km073IlnT2p//gJkKChqznlIv8pueFiuESNElI0IQMGtbWvy5jpuRE0sLB4zRLSDCz07pP3l75r0/7hASz0ZU+W9I+LhZGSDCPr08PDJdWbz1LMnRESFDb1+09nkP+TRld5cVZ6uYuuiMkqCct4Hn+XQs4YpGPidApIUEl5+UHjxxfKTmalytRkZfOQgVzERI8ncbuEQ4eZ15Cgic6OQZ1CklWB48zFyHBU2jXJmfBn1kICaZnK+fzOHicyoQEU8qgwUNhFdgFQDVCgmnYtVlZMth5HlQgJHhUWqt0bNNapWNr+aGyvODnhQpDN55BSPCQgyOvG+Bd4HmEBHfSh21KGc+VhQoHjzMhIcHNTk63bpWVISYnJLiN7mr77DFjQkKCa9mh3xdPqzAJIcHPPOvbqbJQkTcu6W7jGfcREoxJK3NeftDKdCq5XjLeCVrcQUhwkfNHlyQZn/FEosJsITcREvyBBmWpBD+3EhL8i6mJxTOFyE2EBAOLnKtiMwJXEhL8l+2S62RbMz8SEmuXQYMHr1YuCZGcSFp4QJLvhMR6nRzhwP+kABy1wh8JiTUqyw86j/wmw8rzQoVhJYWQWB3HSjNOhfCVkFgR/USuVMaaKZWkha1uKyckViH3vBlnbmXVihASy3defvCQLXew/23lhMSS2QXPVDxJs1pCYpk8T8vk0s/IYCJFlYGFhYr1EBJL407mqdLnKP0Pp3uthJBYFGd8Ukf6H1vnBK+DkFgINy312ROxBkKie4b/zCg9kvPuatObiyQkOpb7M1253J/pyrk/mZGNEgsmJHplSyKt+brlerhE/4REfzJo8HATbSqj2+RE0sLZkcsgJHqSgbzTNWifQl0SIdEHHTS6kyHveaHCkLdfQqIDB0c30y2LZ70TEk37umlEX4xOlXFwytg2vB4JiUblvjrP6rqvWICTg8f7JCRadF5+8CArC2NvXneERFsc7s0aOGSsI0KiFRmAl+UHp2uwBukDOa64C0Jifu4WVkvfqH1CYmbG3WCWtWVCYjYZNOTGSB/KjQFhv0abhMQMMqy2FxC+S2/Jzu/WCImqcg+ku5R7IN0l9wD8kWdImyIk6nE+AVwv98t5oWK4xByERA0ZNOgZwa3KyDs5kbRwruVchMRznZyZDI9xE81LSDyLThBMKMNx53nMQkg8xdd938Ml4GEW9uoTEhP7ujHD9laYXBmj5xazRbAOITGZ1O555lTtwlN52KgaITGN8/KDh0WhmvTGctMlKnIDWqh4EiHxKGUK83IA2lMJiftlkFuWHxxgCfNK/8xRyk8iJO6hIqFBto08g5C4mbEttMzB49MSEjfIoMHjPNAFe0mmIiSuYr8ddCc9Oed5PE5I/CB1li5J6ixdEssP0J3ctueFChMAdxASYzJQPU9uDpeADrmX7yYk/kzvAxamzAqUhQpnbl5PSPzu5FxiWC7ri7cSEv+iowFrYKfi9YTEwN5qWJuDg8evICQ8pQnrVRYqcvunj2j74h+tOiRSH+flB/UBq5XeYekpOoftu/WGhNM1gK/SU8x4IlFhzvmrNYaEUgAu0X38zbpCwqAS+FH6jo55PltLSHjXgZvY0lKsIiRsdAPuY3P8wkMigwaPzAAPSkIkJ5IWK3zMdrEhkeGhh++BqaQZWeeBPQsMiYwY1hz7wPN8rO/oz6WFhAOBgWdbVTuznJBYYcIDcykzFmlwkhbL3jC5hJDIu7XOuUJgXmtY++w+JM7LDx6PBGax7F2UHYeE/ctAO5b6PFaXIeFJSKBB6a0u72SHzkJike8BsCTpuZZe7DLOiOspJJzOCPQivdjtIk6b7iMkFvNyA6uygK5t6yGxsIEbsDbp15736Pc4Sd5uSOSVXcmzKsDi9bvdptGQWOpmMmDNvm7cHy41r7mQyKDB4d7AUpU5kuRE0qKLE0gbCokMwRzuDaxBmrheDhNqIiS6i1aAx330cCzp/CFxcLg3sGKNL8HOGRJfl/stPwCrVWZT0hg2uJlznpDIK9L1xmGAybW5LjtDSJyXH5yuAfCb1nZ4Vg0Jh3sDXKOd8zwqhUSGTmX5wekaANdIT7qFQ6+fHhKN/J4APZq9h/3ckHC4N8Dj0sPeznQS9rNCIok3168EsEiz7Pp5Vkjkl0lCGEMATCh97srPDzwxJHa7ndUIgMnVfBL5iSGR3yEf2NcE8AyHKmcaPT0kCk9IAEwuzWl5SDtDiuHS1CqFRJGL9VddABbpPE+TdvV7ezuVqiER9VddABYmDenXFd9L7e0kaodE4fxXgPt8f/5sgSFR1Fl1AViGDBoydEj3+rez/xYbEpHfM1+ZnEha+H/SAfzRafQU8SWHRJHf+bxQ0fj/7hWgptKTTvOYnvSlddzlh0RxaSQFsE6H6/7PpmsJieLKFwVgwdJpThOaTvM1u3vWFRJxzfAKYJHumH5fXUgU4ws1AMuTlnNz+0aelYZEkZFEXq9ERb6hhQpgqR45u2jVIVH4nxcBS/X14eL7Zk2ExH8lWh08DixJmrXz8sMjzZqQ+H+PRy5ACyacIBESv3PwONCvyZdahcSf5T+RnMhrbaEC6MLpOf8TNiFx0dcZPed5AM16ZFX17e0toTKyKVZI/CCveP5bZaHC7BPQmkcOkkjjln+YaMmfw6VvhMRV8jacFyqGSwCzShf2kSPpEir5t8fjMd8nHwxXvxES18p7kP9uciJp4eBxYEanKc6MSMC8/PM/ry4tW7n4nZC4zSTvDcB9Sm81TVB6q7cuP/wm3+RwOGQkMT5HIiTu8eAoD+AO0857p7+b71a6vMOlPxES93tkvQjges/YQVMGJWnHhr9fICQeMuHQD+C7NDLz7sUXEhM4PecZFmDl0tZt5t4sIyQmk5FEmeDLj2ehAnhEO+cDCYmJTXiuFrBCrZ00KiSm93UO0UIFcKU0HQ3+PwuExLO01h0AWtbsJISQeC4HjwPjGl/OFBI15AdOTsy7RQFoTRcbI4VEJamAeTc7A+3IiCHtWBqE9B0bX7kUElWlGvKTl4UKs0+wTn0d1iAkZpASOS9UDJeAFUg3sbtj34TEPDoabAKPO3V7gLSQmFO/dQNcqfQIN91uXRES8+txBApc4+655TQL6UGmoZt9n4uQaEVfa1nAuEd2qeTf5h8mJNJ9zJ/D1ZkIiYakkhp8KB+4SW7kB/e7Z/BRsiENwuxtnZBozsnB49CttE6bf5Yf7j5dI7mS2z/3fsIm3yc5MXxiJkKiURlJpD5SK/llLVRA+6Y6g6fMNSUkMhzJd5u9pygkmubgcWjftKP/BExu+Xy3/NnCtLOQaN3X+U0LFdCU3J7PWEdM0uS7NTKFICT64OBxaM1KBvpCoidfJz2HS0B16eavZ8lQSHQmFZlfPzmRGnXwOFSWcfx+ZackCIkupTof3IgN3KT0z3LTpX+2qtVBIdGxVGpeh7JQsfgxL8xozQciCInuOc8DniddsZUfrSYklmC1A2F4HpO6hZBYjhUuqcEz2B7ylZBYGqNjeMTB/zjy34TEMjnPA2719ZFVHawzIbFYqfJnHBgAy5Ob5bz84Gb5jZBYuJODx2FU2pOMubcPHO69bEJiFdI5yj2QqMhLZxwNhfviGkJiRfK66TFB3D3CPk9M5T5aSa4IiXUx98rK5RZ4ZK0uoVL2g+TPZTy+mhckr8NI4AmJNbKLg3V6cNdfGtPcNSValhESeR3yG0Uic7j0jZBYr9RHhsyp9byewyVYqLTsjz8/lDulNKalbe19J0g6i/kt0lN8f3/PB8PVb4TEquVuyYuZnEhaeLKURUpTPtVJBCUkylxTwma42q28LKUhLZlXLn4nJHBGDctU+kAp7PSB7lh++C53R+Ih33AZ87T5XRIP+SDJl8AoF78TEgwmGY9DI0p/P5yOfEmyM9mQuz6v0sgYS0jwL24tepfuTtqHxfT3nyc3e8mJ8fkDIcHvJh+kQx0mTp9BSPBnEy73wbOVnk1GwLZgTE5IMCYjidx1iYq85kbutCmpkCpNQqRKh0tMR0jwswcfQYInOX55LNR490mEBFfJMMLB47QjBXleflCQTyUkuEE6a3nlc2fuHTzOfAxtaxIS3OzrFLCFCmqySFafkOBOeReSE7lj9eaowCh2LkKC+32dF7YtnSexHjYvIcGjct/m7cg97AFXJucIgNkJCaZRHvHPzZx3Z7gED0jnw2FiLRASTCZ3ct6a5ETSwlOv3O1079P+qUDzUZMTEkzs7jscSj8jxZN+xq3Nffol6aDk32b8MVxiCkKCpzBXwK0embE8/u9/spZvkg/0TiYkJHgiq45c4/G9D/mHCZh8kPFEvk+5yCSEBM/1yAQCi5cu/yS7qFNdpSOS8avGYVpCghrSFuQtS1vgSSjOciNnlJn2/fFtDvkmKbBUV76hR3amJSSoJyOJ3MyJiryDFirWbPKTXcrEZoYREmJyQoLanM62ZmnEc/Omo/DicO9OCAlmkM6jgxbWJm/6efnBm94RIcFsdCrXw/CxX0KCmU0+PU1TLET1TkjQhLynyYm0Jo9vdKERtrQtg5CgFWlHJtkyz+wyYshNmrcyqW/5oXdCgrakTcmbWxYqzE70yGP2CyMkaFEamvNCxXCJ5iXgHdi1PEKCRpmy6MjJ0b/LJSRomtancSXLM+az6WCphAQdMI/RJrOCayAk6IYV0XbYX7AeQoKepD1ynse88hbYqbwqQoL+nDylNZPcehnJbbfbW0/XeP/H8Be6IiToVUYSaa0SFakHMx7Plib+vPxw06udLy6JHhkFDlfph5Cgb06Oe7YHz2FMMOTdyTdx23ZKSNC9r7PkFiomlBf2wRWgfIf885Lf+3+U63RESLAQDh6f1iRDtERL3pHzB0Z7rSkdrNw4I2+NkGBRvk6dD5e40YSLPUnuEtt5R/LncJU25M3NGx1lID5c/UZIsDQp/VRIWqVUvx01N8kIbD/18+0ZkeS7yewGldsk98t5wPdHQoJlShtX+kcpFdv5f1SSNS9XkvW+5Qe6s9vtyn6z3Cl538vF74QES5b2LqWSti+3wYMzJwt28Cj7KuW+yFsf+WBkzC0kWD6N4CUJUYdirVYZapd3f7j0J0KCVTCd8hvTcUTuhR8Xn4QEK/KMhdnulLzMuMrCPtcQEqzOmudYDg735kZCgpVa23keXx82tPzA9YQE65W28sFjJ7qQX/O8/GA9hlsJCdbutOiDx3OzZLS0vf1wbyiEBPxXuthpSRMVqa5lzMbcfbg3fCUk4P+ltBbQ71722IjKhAT8S9cz+CtZZaEmIQF/0OPB42vbr0UdQgIu6uXg8Qwa7nvyI1mYX81pJYwQEjAmbW7qLTmRtGjw+eSMcu5+hjy/TpmYyp8eveYSIQE/S/vb2klHJb3yIyW97lh+yD9P8uWXysf5pfKtynX4jZCAa909qzO5w8Pn2pYFjPwWyT8jCUYICbjN4w30IxJUKf406xkEPBJU55tov99nLFIuwndCAm724FTPfaad8krClZ8/adfIBBptEhJwp0cWjW9SMimt+bSL58mJfNun/uQsgJCAh2QkkbY7UZGyfMZCRVKh9Pfz/YdLUJGQgAmUdeCY8EG2Hh/oY3mEBEwjw4ipjsTItzovP1Rb84A/EhIwpXT5U5xp3+8+XC/lnRHJ1uHetEFIwPS+LiRcv1Dx7OUNuIOQgGdJoV45Jnh8/AFPIiTgiX5cXZhwJQOeQUjA033dp/R1Hmneh7fhGkICKkkknBcqMmho5BgoGCckoJ7kQao3OVEmoCw/0D4hAbUpYDoiJKA2BUxHhATUpoDpiJCA2n4s4LJ0ka/x0DWzExJQ248FvNvtNptNOYfc3ifmJSSgtvECLgfKHo/Hj4+PhIQdUMxLSEBt4wWcT728vOSDfFnSolyEuQgJqG28gBMMGUyUYUS+crgKMxESUNt4AZeliCjjCXiqdEdSkCOzmkICahsv4M/Pz/f39+PxOPwdnqacPpnB68jEppCA2hQwLUhfJAlxOBzK3OZw9RshAbUpYFqw3+/LlGY5jbhc/E5IQG0KmBZk9JDBxOfnZxJiZAFMSEBtCpgW7Ha7cnZ9Phh5ZlNIQG0KmBYcj8f9fv/j/9FESEBtCpiOCAmoTQHTESEBtSlgOiIkoDYFTEeEBNSmgOmIkIDaFDAdERJQmwKmI0ICalPAdERIQG0KmI4ICahNAdMRIQG1KWA6IiSgNgVMR4QE1KaA6YiQgNoUMB0RElCbAqYjQgJqU8B0REhAbQqYjggJqE0B0xEhAbUpYDoiJKA2BUxHhATUpoDpiJCA2hQwHRESUJsCpiNCAmpTwHRESEBtCpiOCAmoTQHTESEBtSlgOiIkoDYFTEeEBNSmgOmIkIDaring0+n08fGRP4e/w0yEBNT2YwEfDodf/9hut8MlmImQgNrGCzgDiMRDvuZ4POaD/Dl8AuYgJKC28QLe7/fls2U8US7CXIQE1DZewNvtNl/w+fm52+0SGMNVmImQgNrGCzjZkM/mz81mY+Ga2QkJqG28gI/HYz778vJiNYJnS41l5Prr16/U23DpGyEBtSlgWpBxakarKcW3t7eR1S8hAbUpYFqQ0UOGEZ+fn+/v70ICGqKAaUESImOIfHDeUPdHQgJqU8C0YLPZvL6+ZjyRYcTHx8dw9RshAbUpYFqQhEg8JCoOh8Nw6U+EBNSmgOmIkIDaFDAdERJQmwKmI0ICalPAdERIQG0KmI4ICahNAdMRIQG1KWA6IiSgNgVMR4QE1KaA6YiQgNoUMB0RElCbAqYjQgJqU8B0REhAbQqYjggJqE0B0xEhAbUpYDoiJKA2BUxHhATUpoDpiJCA2hQwHRESUJsCpiNCAmpTwHRESEBtCpiOCAmoTQHTESEBtSlgOiIkoDYFTEeEBNSmgOmIkIDaFDAdERJQmwKmI0ICalPAdERIQG0KmI4ICahNAdMRIQG1/VjAp9MpX/Dr16/X19fhEsxESEBt4wX8+fm53W53u10SIjmRvw6fgDkICahtvIDz2c1mk2z4+PgQEsxOSEBt4wVcxhD54OXlJUOKchHmIiSgtvECTjAkHt7e3jKMeH9/H67CTIQE1DZewGUpIpITwyV4mpTZfr8f6Y4ICajtxwI+nU6WIqggdbjZbHa7Xf4cLn0jJKA2BUwLypTm8XgsWySGq98ICahNAdOCDCBeXl7yQQrSSAIaooBpQUYPh8MhI4kkRGpyuPqNkIDaFDAt2O/32+02UTFejUICalPAtODz8zOlmMHE8PcLhATUpoDpiJCA2hQwHRESUJsCpiNCAmpTwHRESEBtCpiOCAmoTQHTESEBtSlgOiIkoDYFTEeEBNSmgOmIkIDaFDAdERJQmwKmI0ICalPAdERIQG0KmI4ICahNAdMRIQG1KWA6IiSgNgVMR4QE1KaA6YiQgNoUMB0RElCbAqYjQgJqU8B0REhAbQqYjggJqE0B0xEhAbUpYDoiJKA2BUxHhATUpoDpiJCA2hQwHRESUJsCpiNCAmpTwHRESEBtCpiOCAmo7ZoCPhwO+bLj8Tj8HWYiJKC2Hwv45eXl169fu91us9kMl2AmQgJqGy/g9/f3JERGEh8fH/nAYIJ5CQmobbyA9/t9RhL5IDmRkCgXYS5CAmobL+DNZpMvOJ1O+aCkBcxISEBt4wWckcR2u01C7Ha7z8/P4So8R2rs4+NjpNKEBNQ2XsC5XfMFb29vEoJnK1OakR7JcOkbIQG1KWBaUHZGvLy8lL0Sw9VvhATUpoBpwX6/L3U4vkVCSEBtCpgWbDabxMPn5+dut0tgDFe/ERJQmwKmBdvtNtlQntk8nU7D1W+EBNSmgGlBhhElJ8Yf2BQSUJsCpiNCAmpTwHRESEBtCpiOCAmoTQHTESEBtSlgOiIkoDYFTEeEBNSmgOmIkIDaFDAdERJQmwKmI0ICalPAdERIQG0KmI4ICahNAdMRIQG1KWA6IiSgNgVMR4QE1KaA6YiQgNoUMB0RElCbAqYjQgJqU8B0REhAbQqYjggJqE0B0xEhAbUpYDoiJKA2BUxHhATUpoDpiJCA2hQwHRESUJsCpiNCAmpTwHRESEBtCpiOCAmoTQHTESEBtSlgOiIkoLYrC/h4PA4fwXyEBNT2YwF/fHxsNptfv37tdrvhEsxESEBt4wV8Op2SEC8vL29vb8mJ/HX4BMxBSEBt4wWceNhut/ng/f09IfH5+VmuwyyEBNQ2XsC73S5fkA/yNeqc2QkJqO3HkNj/I8MIa9fMTkhAbeMFfDgcNpvNdrv9+PgYLsFzfH5+vry8pBpTdcOlb4QE1KaAaUESIn2RSE5k2Dpc/UZIQG0KmBakDjNmTVRkzCokoCEKmBbsdrvX19d8cN5Q90dCAmpTwLQgo4fD4VAex3l/fx+ufiMkoDYFTAvKUkSU8cQlQgJqU8A04uPj48dH+oUE1KaA6YiQgNoUMB0RElCbAqYjQgJqU8B0REhAbQqYjggJqE0B0xEhAbUpYDoiJKA2BUxHhATUpoDpiJCA2hQwHRESUJsCpiNCAmpTwHRESEBtCpiOCAmoTQHTESEBtSlgOiIkoDYFTEeEBNSmgOmIkIDaFDAdERJQmwKmI0ICalPAdERIQG0KmI4ICahNAdMRIQG1KWA6IiSgNgVMR4QE1KaA6YiQgNoUMB0RElCbAqYjQgJqU8B0REhAbQqYjggJqO3HAv78/CxfczgchkswEyEBtf1YwLvdbrPZ7Pf7X79+JTCGqzAHIQG1jRfw29tbEuJ4PH58fCQkTqfT8AmYg5CA2sYLOJ96eXnJB/mypEW5CHMRElDbeAEnGDKYKMOIfOVwFWYiJKC28QIuSxFRxhPwVOmOpCBHZjWFBNQ2XsCfn5/v7+/H43H4OzxNOiLpjmTwOjKxKSSgNgVMC9IXSUIcDocytzlc/UZIQG0KmBbs9/sypZmcMJKAhihgWpDRQwYTn5+fSYiRBTAhAbUpYFqw2+22220SIh+MPLMpJKA2BUwLjsfjfr9/fX0df6pfSEBtCpiOCAmoTQHTESEBtSlgOiIkoDYFTEeEBNSmgOmIkIDaFDAdERJQmwKmI0ICalPAdERIQG0KmI4ICahNAdMRIQG1KWA6IiSgNgVMR4QE1KaA6YiQgNoUMB0RElCbAqYjQgJqU8B0REhAbQqYjggJqE0B0xEhAbUpYDoiJKA2BUxHhATUpoDpiJCA2hQwHRESUJsCpiNCAmpTwHRESEBtCpiOCAmoTQHTESEBtSlgOiIkoDYFTEeEBNSmgOmIkIDaring0+n08fGRP4e/w0yEBNT2YwEfDodf/9hsNsMlmImQgNrGCzgDiMRDvuZ4POaD/Dl8AuYgJKC28QLe7/fls2U8US7CXIQE1DZewNvtNl/w+fm52+0SGMNVmImQgNrGCzjZkM/mz81mY+Ga2QkJqG28gI/HYz778vIiIXi2FFtGrr9+/Uq9DZe+ERJQmwKmBemFZLSaUnx7extZ/RISUJsCpgUZPWQY8fn5+f7+LiSgIQqYFiQhMobIB+cNdX8kJKA2BUwLNpvN6+trxhMZRnx8fAxXvxESUJsCpgVJiMRDouJwOAyX/kRIQG0KmI4ICahNAdMRIQG1KWA6IiSgNgVMR4QE1KaA6YiQgNoUMB0RElCbAqYjQgJqU8B0REhAbQqYjggJqE0B0xEhAbUpYDoiJKA2BUxHhATUpoDpiJCA2hQwHRESUJsCpiNCAmpTwHRESEBtCpiOCAmoTQHTESEBtSlgOiIkoDYFTEeEBNSmgOmIkIDaFDAdERJQmwKmI0ICalPAdERIQG0KmI4ICahNAdMRIQG1KWA6IiSgNgVMR4QE1KaA6YiQgNoUMB0RElDbjwV8Op3yBb9+/Xp9fR0uwUyEBNQ2XsCfn5/b7Xa32yUhkhP56/AJmIOQgNrGCzif3Ww2yYaPjw8hweyEBNQ2XsBlDJEPXl5eMqQoF2EuQgJqGy/gBEPi4e3tLcOI9/f34SrMREhAbeMFXJYiIjkxXIKnSZnt9/uR7oiQgNp+LODT6WQpggpSh5vNpvw5XPpGSEBtCpgWlCnN4/FYtkgMV78RElCbAqYFu93u5eUlH6QgjSSgIQqYFmT0cDgcMpJIQqQmh6vfCAmoTQHTgv1+v91uExXj1dhlSCT98ou9vr5a3KNHQoIWpP1MKaY5Hf5+QZchEW9vbxkixY+/IbRGSNCRXkMiEoNlR/lut/v4+BiuQvOEBB3pOCSK83mZ+/0+Hw9XoWFCgo6kae07JIqMJMoKTG4/CxU0TkjQhff397SrT53VrxcSRe69/D75rSxU0DIhQeOqzdDUDonIMOLl5SW/W35DCxW0SUjQrMprvTOERHE8HksMJjAsVNAaIUGb6u8anS0kivOEWu7J4RI0QEjQmrmWdWcOichvm985OZHf39H8NEJI0I7T6bTf78sUff15l/lDoshvfl6oOB6Pw1WYiZCgBaUPnYYxfei5VnBbCYkir8Jut8sr4jwP5iUkmN3hcPhn9WEz7//bqq2QKBp5aVgzIcGM0l1O+aW7/PLyMnt3ucWQiBYGWayZkGAWDU68NxoSxbzLNayZkOBHpb8fk7TmzW7haTokirwTs2z8Ys2EBOPSLqVRSi92t9vlz+HqvVp+GKCDkCgcPE5NQoJxadNLNry+vj5SKu0/VtxNSESGEQ4epw4hwYi07GmI0qanUUpapF0aPnGL/Nvz8kPLDVpPIVHkjSnBmxi3UMGTCAlGlLmmtD9p5TebzR0NUQos/zAB0/7USH8hUXydwrNQweSEBCPS5qTxSU7kz1sHAfn6tF35t720Xb2GRNFRGtMXIcG4jB7S3N/Uync6C9J3SEQv83r0RUgwoTRT/a6ndh8SxdcdAl2M4GickGAqve/MXEhIFHkPzgsVwyW4i5DgcRk0LOAwukWFROSdyO2dnEhaOHicuwkJHnFa0GkRSwuJIu/KeaGikfNP6IuQ4D6ln5rGJ/3UZaySLjMkimWM9ZiFkOAOi5zxXnJIFHnb/rtm5OBxbiEkuEm6pCmYdEmXt3dm+SERyxsA8mxCgistfnJ7FSFR5L0sUe88D34kJLhG6mSz9G0yKwqJIiOJvKOJiry7Fiq45JqQOBwO+TI7I9ZpPScDrS4kCgePM+7HkCgzDLvdLlU0XGIdvj66u4Y5iZWGRCT8HTzOJeMhkV5kKic9jFROPjCYWIk0Guflh/U0GusNiWJtnQKuNB4S+/0+BZMPyt65cpFlW+30w9pDonDwOL8ZD4lSKulV5IP7/oczPM+5v5+bepLbeeULmULi/6UCcs+nGixUMB4SGUmUXsVut9OraE3enbw1ZZD34NNRtkSGkPiXcx8klWGiec3GQyJ1ki9IAyQhWlNWicqCwSMhkXfWmmUhJP4gNVG6DwkMrcA6jYcEzcobl2Y9H2QkkVv4vu5/GYU8PhBZBiFxUQrlvFAxXGI1hESnSkiUVv6O5aJ0EPPPky4OfDsTEmPKrEKqLWnh4PFVERKdOh6PuWHvaOUz5tgv5XDvaQmJn6meFRIS61H6grnB0xdc+fLDHwmJaxmHroqQWAmzyj8SErexorUSQmLx7E+5kpC4WerJ3rjFExILllvYTvfrCYk7nTxls2hCYqnyzm48M3sLIfGQjCRSbYmKVJ4R65IIieVx+s59hMQE3hw8vjhCYkmc4/kIITGNr7OcFioWQEgsgxXExwmJKemwLIaQWABD/EkIiemZ+lwAIdE1i4UTEhLPkupMTqRSnefRIyHRKdsOJycknig1ajt2p4REdzJiyLuW2y09M8sPExIST5d6LV2bBIaRby+ERF8chfA8QqKSFPF5oWK4RMOExJOknzRtNz/fzaFqTyUk6jEc7oiQeIbS388tkGZ9uPSAk+OZqxAStansLgiJyR2Px5T9y8tLoiIfPFL8pb+VvLExpAIhMQ9j5MYJicklHsoAIs16Kr9cvIOZ28qExJw87NMsITG5tOxlVTlRcd9r+/VhVV2raoTEzFLrjg1okJCYXEIiL2mkV3TrjvDcJufd5G6TyoREE06eAGqMkJhcmSZKZ+jWhMh7kVzJvzXgnoWQaEi6SLkTEhW5K4ym5yUkWuCEmxYIieboN7VASMzL2LodQqJFZmBnJyTmYpWuNUKiXV/3cuhMVSYkZmG/X4OEROu+TssOl3g+IVGZBblmCYkO5J7JnZOcyF3k+dI6hEQ1GSU7g6BlQqIbuX/OCxW3biLkVkKigtL7SUmn92P5oVlCojO5l9J4lYUKo/LnERLPdnC4dyeERJfcYM8mJJ4nHZ2dg8v6ISR6Zaj+VELiGUyZ9khI9M2i35MIiWnZfNEvIbEE5+2Dxu9TuTIkdIevYRt314TEcngQaUI/hkSCOS91gnk3xf9kbak8ELoAQmJRMoxwpMEkxkMi7V0SIg1fgjmv9jKav/T3J5wISimelx+UYteExAKlzSrdN4ej3W08JNL8bbfbfJBWNa9z71N8+fnLdqNIJ2O4+oC8egnRvEQGtQsgJBYr7dd5IthCxa3GQyJNar4gH+RrRr6sFwmG1MnxeBz/ra9xXh5TdYshJBYu96o+3R1+DImM0sq+st7XrtOU57co5VF+qXL9VsavSyUkli+tgNnhW42HRHmYMdG7gNczv0Jq4/zBHZ2JFJiVsAUTEmvxdZ+JeYAfPT7x0osURqmK8udw9Wr21C2ekFiX3MnnhYrhEn+ynpCINPT5ZW894iWDhrLc7emcZRMSq5P7OS1gciJpMeGWx4VZVUjc6uQ5/zUREiuVe/u8UNH70uszCIk/Kj2MlM0y1mO4hpBYNTMGlwiJ78pyfdw6MUXXhARu/j8QEl+lM5FXI50Jux5WSEjwX6YRfiMkCtOSCAn+nwXJMyEReREyvrTBYeWEBL/LSCLtQqIibcRq5xZWHhLOdOFMSPBnK39IarUh8fWhS9tbCSHBRelCrva4hRWGRN7u8/KDdSnOhAQ/WGfXcm0hsfKBIyOEBFdZ2yT1ekLCEhTjhAQ3SDuSnEibsvj+5hpCIuPCMkZ0uDcjhAS3+TpzveCN88sOiTWvNnErIcE90rKUTmgCY5FzFO2ERJI4P8yED8N7wJ6bCAnul+bmvFAxXFqKRkLi/Z//h3Y5X+vxJ9oS7Y7q4lZCgoekrUl7mpxIWizpudwWQiKvbV7YjNXycX6YR5L45Fl67iUkmMDy2qAWQqJsS01U5CW9eyRRUjz/PClu+YE7CAkms6TZjBZC4vwzJIDTxJeLN1nwfCDVCAkmtox10UZGEmUEkBfz1o1ki99ZQDVCguktYIqjhZCI5ER+kptm8PLFa9ijTDVCgmdJa1U6sz0+q9VISNwqP3aGHcnmJW0iYF5CgufKSCJtVqIi7VdH8x7dhURS4bz8YH6JCQkJaigbdaKX8zw6Col1nsBINUKCStK9Pc+Vt79Q0UVI5CV1ugbPJiSoqpdub/sh0d3gjE4JCWbQ/gR6yyHR6TIPnRISzCZtXHKiza04bYZE1xvG6JSQYE5p6drc1N9aSGTEkB8pL1Qy1fIDNQkJ5pdWr3SQExiNzJ80FRLLeIidTgkJWtHUQUONhETi0+HezEtI0JB2JlVmD4mTw71pg5CgOS20jzOGREnKjKjaXNJnbYQEjZp3pmWukGhqzg1CSNC0udZsfwyJ0t/P10z1LFuDq/cQQoLWpcWsf/jEjyGRHybRVfbvPtim55+3uQ8YQkjQh1Pd58jGQ6IciZEGPaGVH+mRnyf/oXyr7XY71YgEpiUk6Eka5bSnaZfTtj51TmY8JPKp9P3zQWniy8VbOdybLggJ+lOa5nhe73s8JPKfzmCiDCPylcPVq1UeFcEjhARd+jqP/4yFivGQKDt0o4wnrpcf2+He9EVI0LHnHTw+HhJp69PE37rI7HBveiQk6N7Xyf3h0sPGQ+JW1ZZSYHJCgiVIy5v2NzmRtniSp5SnComMb5yuQdeEBMuRVniqBw4eD4mSW/lhkluWH+iXkGBp0iKnfS8LFXfP7TwYEnM9KA6TExIs04PN9N0hkYhyuDdLIiRYrEcmfO4IiQknu6AdQoKFu2/p+KaQmHzZHNohJFiFW2eBrg+Jg8O9WTQhwYpc/zjbNSHx9VE+yw8slZBgXdKaX3MwxnhI5Juclx9uXe2AvggJ1uj00xF7IyGRT2UssnW4N+sgJFivDALS1icq0u7/Nl/0x5AY+XpYKiHB2v1xZPBbSPw48oClEhLwhzWGc0hcuYYBSyUkYPB1t1KCIR873BuEBPxLee4hUVE4XYOVExLwu6TC33//bfkBQkgAcJGQAOAiIQHARUICgIuEBAAXCQkALhISAFwkJAC4SEgAcJGQAOAiIQHARUICgIuEBAAXCQkALhISAFwkJAC4SEgAcJGQAOAiIQHARUICgIuEBAAXCQkALhISAFwkJAC4SEgAcJGQAOAiIQHARUICgAv+85//A+XpE4tUygPSAAAAAElFTkSuQmCC;" vertex="1" parent="1">
          <mxGeometry x="78" y="80" width="335.36" height="480" as="geometry" />
        </mxCell>
        <mxCell id="6p8rVo9SK4B3AD2PchLz-25" value="" style="endArrow=none;html=1;rounded=0;startArrow=classic;startFill=1;endFill=0;" edge="1" parent="1">
          <mxGeometry width="50" height="50" relative="1" as="geometry">
            <mxPoint x="370" y="250" as="sourcePoint" />
            <mxPoint x="510" y="250" as="targetPoint" />
          </mxGeometry>
        </mxCell>
        <mxCell id="6p8rVo9SK4B3AD2PchLz-28" value="High Frequency" style="edgeLabel;html=1;align=center;verticalAlign=middle;resizable=0;points=[];" vertex="1" connectable="0" parent="6p8rVo9SK4B3AD2PchLz-25">
          <mxGeometry x="0.2975" relative="1" as="geometry">
            <mxPoint x="100" as="offset" />
          </mxGeometry>
        </mxCell>
        <mxCell id="6p8rVo9SK4B3AD2PchLz-26" value="" style="endArrow=none;html=1;rounded=0;startArrow=classic;startFill=1;endFill=0;" edge="1" parent="1">
          <mxGeometry width="50" height="50" relative="1" as="geometry">
            <mxPoint x="350" y="310" as="sourcePoint" />
            <mxPoint x="510" y="310" as="targetPoint" />
          </mxGeometry>
        </mxCell>
        <mxCell id="6p8rVo9SK4B3AD2PchLz-29" value="Medium Frequency" style="edgeLabel;html=1;align=center;verticalAlign=middle;resizable=0;points=[];" vertex="1" connectable="0" parent="6p8rVo9SK4B3AD2PchLz-26">
          <mxGeometry x="0.3527" y="2" relative="1" as="geometry">
            <mxPoint x="112" y="2" as="offset" />
          </mxGeometry>
        </mxCell>
        <mxCell id="6p8rVo9SK4B3AD2PchLz-27" value="" style="endArrow=none;html=1;rounded=0;startArrow=classic;startFill=1;endFill=0;" edge="1" parent="1">
          <mxGeometry width="50" height="50" relative="1" as="geometry">
            <mxPoint x="334" y="370" as="sourcePoint" />
            <mxPoint x="510" y="370" as="targetPoint" />
          </mxGeometry>
        </mxCell>
        <mxCell id="6p8rVo9SK4B3AD2PchLz-30" value="Low Frequency" style="edgeLabel;html=1;align=center;verticalAlign=middle;resizable=0;points=[];" vertex="1" connectable="0" parent="6p8rVo9SK4B3AD2PchLz-27">
          <mxGeometry x="0.2238" y="1" relative="1" as="geometry">
            <mxPoint x="118" as="offset" />
          </mxGeometry>
        </mxCell>
      </root>
    </mxGraphModel>
  </diagram>
</mxfile>
